<?xml version="1.0" encoding="UTF-8"?>
<svg id="Logo" xmlns="http://www.w3.org/2000/svg" viewBox="0 0 192.47 159.06">
  <defs>
    <style>
      .cls-1 {
        fill: #fff;
      }
    </style>
  </defs>
  <path class="cls-1" d="M85.24,61.95c-.98,1.55-1.85,3.17-2.57,4.88,13.7.45,24.71,11.72,24.71,25.53,0,6.77-2.65,12.93-6.97,17.51,1.68.7,3.44,1.25,5.25,1.66,4.23-5.25,6.77-11.92,6.77-19.17,0-15.72-11.92-28.71-27.19-30.41ZM112.94,36.1c-18.16,0-33.74,11.2-40.22,27.05-9.14,2.86-16.46,9.89-19.69,18.86-9.76,1.76-16.93,10.21-16.93,20.3,0,11.39,9.26,20.65,20.65,20.65,4.04,0,7.9-1.15,11.24-3.32,4.16,2.12,8.86,3.32,13.85,3.32s9.87-1.27,14.1-3.47c5.23,2.23,10.97,3.47,17.01,3.47,23.95,0,43.44-19.48,43.44-43.44s-19.48-43.44-43.44-43.44ZM56.75,117.91c-8.6,0-15.59-7-15.59-15.59,0-6.79,4.3-12.59,10.45-14.72-.24,1.55-.38,3.14-.38,4.76,0,9.83,4.67,18.59,11.89,24.19-1.98.89-4.14,1.36-6.37,1.36ZM81.83,117.91c-14.09,0-25.55-11.46-25.55-25.55,0-10.1,5.9-18.83,14.43-22.97-.78,3.26-1.21,6.65-1.21,10.14,0,15.61,8.28,29.31,20.67,36.97-2.62.91-5.42,1.41-8.34,1.41ZM112.94,117.91c-21.16,0-38.38-17.22-38.38-38.38s17.22-38.38,38.38-38.38,38.38,17.22,38.38,38.38-17.22,38.38-38.38,38.38Z"/>
</svg>